<?xml version="1.0" encoding="utf-8" standalone="yes"?>
<!DOCTYPE svg PUBLIC "-//W3C//DTD SVG 1.1//EN" "http://www.w3.org/Graphics/SVG/1.1/DTD/svg11.dtd">
<svg style="fill:none;stroke:none;fill-rule:evenodd;clip-rule:evenodd;stroke-linecap:round;stroke-linejoin:round;stroke-miterlimit:1.5;" version="1.1" xmlns="http://www.w3.org/2000/svg" xmlns:xlink="http://www.w3.org/1999/xlink" width="720" height="504" viewBox="0 0 720 504"><style class="text-font-style fontImports" data-font-family="Roboto">@import url(https://fonts.googleapis.com/css2?family=Roboto:wght@400;700&amp;amp;display=block);</style><rect id="" x="0" y="0" width="720" height="504" style="fill: #2c2c2c;"></rect><g id="items" style="isolation: isolate"><g id="blend" style="mix-blend-mode: normal"><g id="g-root-tf_4mcws1qrmxa9-fill" data-item-order="-544320"><g id="tf_4mcws1qrmxa9-fill-merged" stroke="none" fill="#2c2c2c" fill-opacity="1"><g><path d="M0 0 H720 V504 H0 V0"></path></g></g></g><g id="g-root-cp_6_g-6_9595uk1qrr4so-fill" data-item-order="-274166" transform="translate(318.71099853515625, 377)"><g id="cp_6_g-6_9595uk1qrr4so-fill-merged" stroke="none" fill="#b7b7b7" fill-opacity="1"><g><path d="M348.635 10 H33.944L10 52 H372.579L348.635 10"></path></g></g></g><g id="g-root-cp_5_g-5_9595uk1qrr4sp-fill" data-item-order="-274162" transform="translate(349.4959716796875, 323)"><g id="cp_5_g-5_9595uk1qrr4sp-fill-merged" stroke="none" fill="#4f91fc" fill-opacity="1"><g><path d="M287.065 10 H33.944L10 52 H311.009L287.065 10"></path></g></g></g><g id="g-root-cp_4_g-4_9595uk1qrr4sq-fill" data-item-order="-274158" transform="translate(380.281005859375, 269)"><g id="cp_4_g-4_9595uk1qrr4sq-fill-merged" stroke="none" fill="#1ac3fb" fill-opacity="1"><g><path d="M225.495 10 H33.944L10 52 H249.439L225.495 10"></path></g></g></g><g id="g-root-cp_3_g-3_4pfnq41qrr5kz-fill" data-item-order="-274154" transform="translate(411.0660400390625, 215)"><g id="cp_3_g-3_4pfnq41qrr5kz-fill-merged" stroke="none" fill="#43dd93" fill-opacity="1"><g><path d="M163.925 10 H33.944L10 52 H187.869L163.925 10"></path></g></g></g><g id="g-root-cp_2_g-2_4pfnq41qrr5l0-fill" data-item-order="-274150" transform="translate(441.85003662109375, 161)"><g id="cp_2_g-2_4pfnq41qrr5l0-fill-merged" stroke="none" fill="#a6da37" fill-opacity="1"><g><path d="M102.355 10 H33.944L10 52 H126.299L102.355 10"></path></g></g></g><g id="g-root-cp_1_g-1_4pfnq41qrr5l1-fill" data-item-order="-274146" transform="translate(472.636962890625, 101)"><g id="cp_1_g-1_4pfnq41qrr5l1-fill-merged" stroke="none" fill="#ffe711" fill-opacity="1"><g><path d="M64.729 58L37.364 10L10 58 H64.729"></path></g></g></g><g id="g-root-sy_-1_Line_1uuwpgc1qrr66m-fill" data-item-order="-274065" transform="translate(284, 395)"></g><g id="g-root-sy_-1_Line_1_1uuwpgc1qrr66n-fill" data-item-order="-274061" transform="translate(284, 341)"></g><g id="g-root-sy_-1_Line_2_1qf37bw1qrr6yw-fill" data-item-order="-274057" transform="translate(284, 287)"></g><g id="g-root-sy_-1_Line_3_1qf37bw1qrr6yx-fill" data-item-order="-274053" transform="translate(284, 233)"></g><g id="g-root-sy_-1_Line_4_1qf37bw1qrr6yy-fill" data-item-order="-274049" transform="translate(284, 179)"></g><g id="g-root-sy_-1_Line_5_1qf37bw1qrr6yz-fill" data-item-order="-274045" transform="translate(284, 125)"></g><g id="g-root-ic_2_qnsj4s1qrvdvo-fill" data-item-order="-900" transform="translate(242, 380)"><g id="ic_2_qnsj4s1qrvdvo-fill-merged" stroke="none" fill="#f4f4f4" fill-opacity="1"><g><path d="M23.044 18.86 H26.829 V11.653C26.829 10.895 26.325 10.39 25.568 10.39 H24.305C23.549 10.39 23.044 10.895 23.044 11.653 V18.86 M13.438 40C14.818 40 15.938 38.881 15.938 37.5C15.938 36.119 14.818 35 13.438 35C12.057 35 10.938 36.119 10.938 37.5C10.938 38.881 12.057 40 13.438 40 M25 40C26.381 40 27.5 38.881 27.5 37.5C27.5 36.119 26.381 35 25 35C23.619 35 22.5 36.119 22.5 37.5C22.5 38.881 23.619 40 25 40 M39.063 37.5C39.063 38.881 37.943 40 36.563 40C35.182 40 34.063 38.881 34.063 37.5C34.063 36.119 35.182 35 36.563 35C37.943 35 39.063 36.119 39.063 37.5 M33.035 24.52C33.792 24.52 34.298 24.015 34.298 23.257 V21.999C34.298 21.241 33.792 20.736 33.035 20.736 H16.965C16.208 20.736 15.702 21.241 15.702 21.999 V23.26C15.702 24.016 16.208 24.522 16.965 24.522 H33.035 M32.497 18.86C32.184 16.446 30.746 14.334 28.704 13.184 V18.86 H32.496 M21.17 18.86 V13.184C19.128 14.334 17.69 16.446 17.378 18.86 H21.17 M26.25 28.313C26.25 27.622 25.69 27.063 25 27.063C24.31 27.063 23.75 27.622 23.75 28.313 V29.188 H14.688C14.029 29.188 13.382 29.413 12.898 29.898C12.413 30.382 12.188 31.029 12.188 31.688 V33.306C13.003 33.063 13.872 33.063 14.688 33.306 V31.688 H23.75 V33.306C24.566 33.063 25.434 33.063 26.25 33.306 V31.688 H35.313 V33.306C36.128 33.063 36.997 33.063 37.813 33.306 V31.688C37.813 31.029 37.588 30.382 37.103 29.898C36.618 29.413 35.971 29.188 35.313 29.188 H26.25 V28.313"></path></g></g></g><g id="g-root-ic_mesh_8x4zq41qrsj5t-fill" data-item-order="-900" transform="translate(242, 110)"><g id="ic_mesh_8x4zq41qrsj5t-fill-merged" stroke="none" fill="#f4f4f4" fill-opacity="1"><g><path d="M25 10.246C24.163 10.246 23.364 10.59 22.788 11.196C22.212 11.803 21.91 12.62 21.954 13.455L20.866 13.966C20.241 14.26 19.973 15.005 20.267 15.63C20.562 16.255 21.306 16.523 21.931 16.229L23.096 15.68C23.636 16.113 24.308 16.348 25 16.347C25.704 16.349 26.386 16.106 26.93 15.66L28.042 16.215C28.659 16.517 29.404 16.265 29.711 15.651C30.018 15.037 29.772 14.29 29.16 13.979L28.048 13.424C28.05 13.381 28.05 13.339 28.05 13.296C28.05 11.612 26.684 10.246 25 10.246 M21.984 20.895C21.376 20.589 20.635 20.825 20.316 21.426C19.998 22.027 20.219 22.773 20.814 23.104L21.951 23.706 V23.8C21.949 25.001 22.654 26.091 23.75 26.584 V28C23.75 28.69 24.31 29.25 25 29.25C25.69 29.25 26.25 28.69 26.25 28 V26.583C27.365 26.082 28.073 24.964 28.05 23.743L29.214 23.087C29.612 22.874 29.864 22.461 29.873 22.009C29.881 21.556 29.644 21.135 29.253 20.907C28.862 20.678 28.379 20.679 27.989 20.909L26.979 21.476C26.427 21.006 25.725 20.748 25 20.75C24.286 20.749 23.594 20.999 23.046 21.458L21.984 20.895 M14.196 25.79C14.887 25.79 15.446 26.35 15.446 27.04 V28.459C16.596 28.975 17.311 30.145 17.244 31.404L17.796 31.705C18.402 32.036 18.625 32.795 18.295 33.401C17.964 34.007 17.205 34.231 16.599 33.9L16.099 33.626C15.175 34.359 13.911 34.493 12.854 33.971C11.797 33.449 11.135 32.364 11.155 31.185C11.174 30.006 11.872 28.944 12.946 28.458 V27.04C12.946 26.35 13.506 25.79 14.196 25.79 M26.25 33.92 V32.503C26.25 31.812 25.69 31.253 25 31.253C24.31 31.253 23.75 31.812 23.75 32.503 V33.92C23.496 34.034 23.26 34.182 23.046 34.36L21.984 33.798C21.373 33.474 20.617 33.707 20.294 34.318C19.971 34.928 20.203 35.684 20.814 36.007L21.951 36.61 V36.704C21.966 38.388 23.344 39.741 25.028 39.726C26.713 39.71 28.066 38.332 28.05 36.647L29.214 35.993C29.8 35.647 30.003 34.896 29.669 34.303C29.336 33.709 28.589 33.492 27.989 33.814L26.979 34.381C26.759 34.193 26.514 34.038 26.25 33.919 M37.054 27.04 V28.459C38.127 28.943 38.825 30.002 38.848 31.179C38.871 32.356 38.215 33.441 37.162 33.967C36.109 34.493 34.847 34.366 33.92 33.641L33.361 33.92C32.961 34.124 32.483 34.097 32.108 33.851C31.732 33.605 31.518 33.176 31.546 32.728C31.574 32.28 31.841 31.881 32.244 31.684L32.759 31.426C32.681 30.16 33.396 28.977 34.554 28.458 V27.04C34.554 26.35 35.113 25.79 35.804 25.79C36.494 25.79 37.054 26.35 37.054 27.04 M14.196 15.708C12.757 15.706 11.512 16.711 11.21 18.118C10.909 19.526 11.632 20.953 12.946 21.541 V22.96C12.946 23.65 13.506 24.21 14.196 24.21C14.887 24.21 15.446 23.65 15.446 22.96 V21.541C15.68 21.437 15.899 21.303 16.099 21.144L16.599 21.416C17.205 21.747 17.965 21.524 18.295 20.918C18.626 20.311 18.403 19.552 17.796 19.221L17.244 18.92C17.253 18.736 17.246 18.551 17.222 18.368L17.796 18.055C18.403 17.724 18.626 16.965 18.295 16.359C17.965 15.752 17.205 15.529 16.599 15.86L15.911 16.235C15.406 15.89 14.808 15.707 14.196 15.708 M34.115 16.216C35.073 15.586 36.303 15.546 37.299 16.113C38.296 16.68 38.891 17.757 38.838 18.903C38.786 20.048 38.096 21.067 37.053 21.541 V22.959C37.053 23.649 36.493 24.209 35.803 24.209C35.112 24.209 34.553 23.649 34.553 22.959 V21.541C34.327 21.44 34.114 21.311 33.92 21.158L33.361 21.436C32.748 21.719 32.021 21.465 31.719 20.86C31.417 20.256 31.649 19.522 32.244 19.201L32.759 18.944C32.746 18.744 32.753 18.543 32.78 18.344L32.243 18.076C31.625 17.767 31.374 17.016 31.683 16.398C31.992 15.78 32.743 15.53 33.361 15.839L34.115 16.216"></path></g></g></g><g id="g-root-ic_clou_8d7fg1qrsj67-fill" data-item-order="-900" transform="translate(242, 164)"><g id="ic_clou_8d7fg1qrsj67-fill-merged" stroke="none" fill="#f4f4f4" fill-opacity="1"><g><path d="M36.338 37.8 H35.65 V31.55 H36.338C36.855 31.55 37.275 31.13 37.275 30.612C37.275 30.095 36.855 29.675 36.338 29.675 H33.075C32.557 29.675 32.138 30.095 32.138 30.612C32.138 31.13 32.557 31.55 33.075 31.55 H33.75 V37.8 H33.05C32.532 37.8 32.112 38.22 32.112 38.737C32.112 39.255 32.532 39.675 33.05 39.675 H36.313C36.83 39.675 37.25 39.255 37.25 38.737C37.25 38.22 36.83 37.8 36.313 37.8 M26.35 29.638 H23.85C23.332 29.638 22.913 30.057 22.913 30.575 V38.75C22.913 39.268 23.332 39.688 23.85 39.688C24.368 39.688 24.788 39.268 24.788 38.75 V36.412 H26.3C28.171 36.412 29.687 34.896 29.687 33.025C29.687 31.154 28.171 29.638 26.3 29.638 M26.35 34.537 H24.837 V31.512 H26.35C27.185 31.513 27.863 32.19 27.863 33.025C27.863 33.86 27.185 34.538 26.35 34.538 M19.625 32.5C19.398 30.871 17.995 29.665 16.35 29.687C14.71 29.672 13.314 30.876 13.087 32.5L12.163 38.65C12.087 38.992 12.208 39.349 12.478 39.573C12.747 39.798 13.119 39.853 13.442 39.717C13.766 39.58 13.986 39.275 14.012 38.925L14.325 36.862 H18.388L18.75 38.875C18.813 39.337 19.209 39.679 19.675 39.675 H19.813C20.323 39.598 20.675 39.123 20.6 38.613L19.625 32.5 M14.625 35L15 32.725C15.113 32.03 15.714 31.519 16.419 31.519C17.123 31.519 17.724 32.03 17.837 32.725L18.1 35 H14.625 M39.375 21.575C39.376 19.878 38.687 18.253 37.466 17.074C36.244 15.895 34.596 15.264 32.9 15.325C31.194 11.706 27.25 9.705 23.321 10.466C19.393 11.227 16.481 14.555 16.25 18.55C14.872 18.269 13.44 18.621 12.35 19.51C11.26 20.399 10.627 21.731 10.625 23.138C10.625 27.9 15.625 27.825 15.625 27.825 H33.75C33.75 27.825 39.375 27.087 39.375 21.575"></path></g></g></g><g id="g-root-ic_down_qunr301qrty4l-fill" data-item-order="-900" transform="translate(242, 326)"><g id="ic_down_qunr301qrty4l-fill-merged" stroke="none" fill="#f4f4f4" fill-opacity="1"><g><path d="M15.313 15.113C16.175 15.113 16.875 15.812 16.875 16.675C16.875 17.538 16.175 18.237 15.313 18.237C14.45 18.237 13.75 17.538 13.75 16.675C13.747 16.26 13.91 15.86 14.204 15.566C14.498 15.273 14.897 15.109 15.313 15.113 M22.975 34.45L20.475 31.95C20.207 31.682 19.804 31.602 19.454 31.747C19.104 31.892 18.875 32.234 18.875 32.612 V34.175 H16.688C16.515 34.175 16.375 34.035 16.375 33.862 V30.575C16.375 30.057 15.955 29.638 15.438 29.638C14.92 29.638 14.5 30.057 14.5 30.575 V33.862C14.5 35.071 15.479 36.05 16.688 36.05 H18.875 V37.612C18.876 37.996 19.108 38.341 19.462 38.487C19.574 38.532 19.693 38.554 19.813 38.55C20.062 38.556 20.303 38.456 20.475 38.275L22.975 35.775C23.154 35.601 23.254 35.362 23.254 35.112C23.254 34.863 23.154 34.624 22.975 34.45 M34.375 28.337C38.125 28.337 39.875 27.313 39.875 27C39.875 26.688 38.163 25.675 34.375 25.675C30.587 25.675 28.875 26.688 28.875 27C28.875 27.313 30.587 28.337 34.375 28.337 M34.375 32.125C36.289 32.207 38.201 31.91 40 31.25 V28.513C38.233 29.301 36.308 29.669 34.375 29.587C32.442 29.669 30.517 29.301 28.75 28.513 V31.25C30.549 31.91 32.461 32.207 34.375 32.125 M34.375 37.275C32.468 37.312 30.568 37.038 28.75 36.463 V38.2C28.75 39.188 31.25 40 34.375 40C37.5 40 40 39.188 40 38.2 V36.463C38.182 37.038 36.282 37.312 34.375 37.275 M40 35.1 V32.6C38.182 33.176 36.282 33.45 34.375 33.413C32.468 33.45 30.568 33.176 28.75 32.6 V35.1C30.544 35.784 32.457 36.099 34.375 36.025C36.293 36.099 38.206 35.784 40 35.1 M24.7 14.238L21.313 10.85C20.774 10.306 20.041 9.999 19.275 10 H12.875C11.287 10 10 11.287 10 12.875 V25.112C10 26.7 11.287 27.987 12.875 27.987 H22.663C24.252 27.988 25.543 26.702 25.55 25.112 V16.25C25.545 15.493 25.239 14.769 24.7 14.238 M12.875 12.5 H19.275C19.374 12.5 19.469 12.541 19.538 12.613L22.938 16C23.005 16.076 23.045 16.173 23.05 16.275 V21.25L21.25 19.237C21.042 19.008 20.747 18.876 20.438 18.875C20.126 18.869 19.829 19.002 19.625 19.237L16.987 22.25L18.675 23.675C18.941 23.896 18.977 24.29 18.756 24.556C18.535 24.822 18.141 24.858 17.875 24.638L14.188 21.638C13.753 21.292 13.128 21.33 12.738 21.725L12.5 21.95 V12.875C12.506 12.671 12.671 12.506 12.875 12.5"></path></g></g></g><g id="g-root-ic_chai_hvwdek1qrtxqg-fill" data-item-order="-900" transform="translate(242, 218)"><g id="ic_chai_hvwdek1qrtxqg-fill-merged" stroke="none" fill="#f4f4f4" fill-opacity="1"><g><path d="M19.366 16.97C24.054 16.97 27.851 15.41 27.851 13.485C27.851 11.56 24.052 10 19.366 10C14.681 10 10.882 11.56 10.882 13.485C10.882 15.41 14.681 16.97 19.366 16.97 M26.079 17.682C24.266 18.427 21.892 18.845 19.366 18.845C16.841 18.845 14.466 18.427 12.654 17.682C11.761 17.318 10.913 16.834 10.259 16.2 V21.063C10.259 21.374 10.379 21.695 10.765 22.074C11.158 22.456 11.774 22.843 12.614 23.185C14.29 23.868 16.676 24.304 19.368 24.304C22.061 24.304 24.446 23.868 26.122 23.185C26.962 22.843 27.579 22.456 27.971 22.074C28.358 21.695 28.476 21.374 28.476 21.115 V16.2C27.823 16.831 26.975 17.316 26.08 17.684 M10.257 24.063 V28.045C10.257 28.754 10.601 29.37 11.11 29.868C11.616 30.361 12.315 30.774 13.128 31.105C14.099 31.5 15.278 31.798 16.58 31.974C16.655 31.17 16.98 30.364 17.619 29.725C18.356 28.987 19.319 28.669 20.241 28.669 H25.549C26.376 28.669 27.237 28.925 27.94 29.514C28.27 29.088 28.477 28.594 28.477 28.045 V24.063C27.991 24.39 27.434 24.675 26.827 24.923C24.872 25.72 22.235 26.18 19.366 26.18C16.499 26.18 13.861 25.72 11.904 24.923C11.327 24.693 10.775 24.405 10.257 24.063 M20.241 30.231C19.675 30.231 19.129 30.424 18.724 30.83C18.317 31.236 18.125 31.78 18.125 32.347 V37.655C18.125 38.221 18.317 38.768 18.725 39.173C19.13 39.579 19.675 39.771 20.241 39.771 H25.549C26.115 39.771 26.661 39.579 27.066 39.171C27.472 38.766 27.666 38.221 27.666 37.655 V36.313 H30.229 V37.654C30.229 38.22 30.422 38.766 30.829 39.171C31.235 39.577 31.779 39.77 32.346 39.77 H37.654C38.22 39.77 38.766 39.577 39.171 39.17C39.577 38.765 39.771 38.22 39.771 37.654 V32.346C39.771 31.78 39.577 31.234 39.171 30.829C38.766 30.434 38.219 30.218 37.654 30.229 H32.346C31.78 30.229 31.234 30.422 30.829 30.829C30.434 31.234 30.217 31.78 30.229 32.346 V33.813 H27.666 V32.346C27.666 31.78 27.472 31.234 27.066 30.829C26.661 30.434 26.114 30.218 25.549 30.229 H20.241"></path></g></g></g><g id="g-root-ic_serv_dhyajg1qrtxj9-fill" data-item-order="-900" transform="translate(242, 272)"><g id="ic_serv_dhyajg1qrtxj9-fill-merged" stroke="none" fill="#f4f4f4" fill-opacity="1"><g><path d="M39.829 10.837C39.635 10.374 39.18 10.072 38.678 10.073 H35.03C34.524 10.072 34.068 10.377 33.874 10.844C33.681 11.312 33.788 11.85 34.146 12.208L35.085 13.146L33.537 14.694C33.049 15.182 33.049 15.974 33.537 16.463C34.026 16.951 34.818 16.951 35.306 16.462L36.854 14.915L37.792 15.854C38.15 16.211 38.688 16.318 39.155 16.125C39.622 15.931 39.926 15.475 39.926 14.97 V11.323C39.927 11.156 39.893 10.991 39.829 10.837 M11.323 10.073C10.632 10.073 10.073 10.632 10.073 11.323 V14.97C10.072 15.476 10.377 15.932 10.844 16.126C11.312 16.319 11.85 16.212 12.208 15.854L13.146 14.915L14.694 16.462C15.182 16.951 15.974 16.951 16.463 16.463C16.951 15.974 16.951 15.182 16.462 14.694L14.915 13.146L15.854 12.208C16.212 11.85 16.319 11.312 16.126 10.844C15.932 10.377 15.476 10.072 14.97 10.073 H11.323 M10.845 33.875C11.312 33.681 11.85 33.789 12.208 34.146L13.146 35.086L14.694 33.537C15.182 33.049 15.974 33.049 16.463 33.537C16.951 34.026 16.951 34.818 16.462 35.306L14.915 36.854L15.854 37.794C16.211 38.151 16.318 38.689 16.125 39.156C15.931 39.623 15.475 39.927 14.97 39.927 H11.323C10.991 39.929 10.672 39.798 10.437 39.563C10.202 39.328 10.071 39.009 10.073 38.677 V35.03C10.073 34.524 10.378 34.068 10.845 33.875 M39.155 33.875C39.622 34.069 39.926 34.524 39.926 35.03 V38.677C39.928 39.143 39.668 39.571 39.255 39.785C39.077 39.879 38.879 39.927 38.678 39.928 H35.03C34.525 39.927 34.069 39.623 33.875 39.156C33.682 38.689 33.789 38.151 34.146 37.794L35.086 36.854L33.537 35.306C33.049 34.818 33.049 34.026 33.537 33.537C34.026 33.049 34.818 33.049 35.306 33.537L36.854 35.086L37.792 34.146C38.15 33.789 38.688 33.681 39.155 33.875 M32.746 19.161C33.106 18.573 33.875 18.387 34.464 18.746C36.907 20.239 38.688 22.452 38.688 25.063C38.688 28.299 36.123 30.749 32.959 32.2C32.331 32.488 31.589 32.212 31.301 31.584C31.013 30.956 31.288 30.214 31.916 29.926C34.752 28.626 36.188 26.826 36.188 25.063C36.188 23.673 35.217 22.138 33.161 20.879C32.573 20.519 32.387 19.75 32.746 19.161 M16.938 20.769C17.337 20.552 17.588 20.135 17.591 19.68C17.595 19.225 17.351 18.804 16.955 18.581C16.558 18.358 16.072 18.367 15.685 18.606C13.136 20.083 11.188 22.294 11.188 25.063C11.188 28.299 13.753 30.749 16.916 32.2C17.544 32.488 18.286 32.212 18.574 31.584C18.862 30.956 18.587 30.214 17.959 29.926C15.123 28.626 13.688 26.826 13.688 25.063C13.688 23.583 14.74 22.042 16.939 20.769 M25 22.846C27.78 22.846 30.032 21.921 30.032 20.779C30.032 19.638 27.78 18.712 25 18.712C22.22 18.712 19.968 19.638 19.968 20.779C19.968 21.921 22.22 22.846 25 22.846 M29.271 23.975C28.084 24.462 26.573 24.721 25 24.721C23.427 24.721 21.916 24.462 20.729 23.975C20.42 23.85 20.122 23.7 19.837 23.528 V25.702C19.878 25.805 19.942 25.896 20.025 25.968C20.217 26.155 20.546 26.368 21.03 26.565C21.995 26.959 23.396 27.219 25 27.219C26.604 27.219 28.005 26.959 28.97 26.565C29.454 26.368 29.783 26.155 29.975 25.968C30.058 25.896 30.122 25.805 30.163 25.702 V23.528C29.875 23.705 29.571 23.852 29.271 23.975 M19.837 28.083 V28.892C19.837 29.372 20.071 29.772 20.381 30.075C20.688 30.375 21.097 30.612 21.554 30.799C22.466 31.171 23.685 31.381 25 31.381C26.315 31.381 27.532 31.171 28.446 30.799C28.903 30.614 29.313 30.375 29.619 30.075C29.929 29.772 30.162 29.374 30.162 28.892 V28.081C30.004 28.161 29.842 28.234 29.677 28.301C28.433 28.809 26.778 29.094 25 29.094C23.221 29.094 21.567 28.809 20.323 28.301C20.158 28.235 19.996 28.162 19.837 28.083"></path></g></g></g><g id="g-root-tx_database_qnsj4s1qrsjyc-fill" data-item-order="0" transform="translate(62, 290)"><g id="tx_database_qnsj4s1qrsjyc-fill-merged" stroke="none" fill="#f4f4f4" fill-opacity="1"><g><text style="font: 10px Roboto, sans-serif; white-space: pre;" font-size="10px" font-family="Roboto, sans-serif"><tspan x="15.91" y="22" dominant-baseline="ideographic">Database connectors and credential </tspan><tspan x="117.04" y="34" dominant-baseline="ideographic">management</tspan></text></g></g></g><g id="g-root-tx_dataacce_v3m1981qrsj63-fill" data-item-order="0" transform="translate(158, 260)"><g id="tx_dataacce_v3m1981qrsj63-fill-merged" stroke="none" fill="#1ac3fb" fill-opacity="1"><g><text style="font: bold 11.7px Roboto, sans-serif; white-space: pre;" font-weight="bold" font-size="11.7px" font-family="Roboto, sans-serif"><tspan x="14.59" y="29" dominant-baseline="ideographic">Data Access</tspan></text></g></g></g><g id="g-root-tx_storage_qnsj4s1qrsjyd-fill" data-item-order="0" transform="translate(182, 320)"><g id="tx_storage_qnsj4s1qrsjyd-fill-merged" stroke="none" fill="#4f91fc" fill-opacity="1"><g><text style="font: bold 11.7px Roboto, sans-serif; white-space: pre;" font-weight="bold" font-size="11.7px" font-family="Roboto, sans-serif"><tspan x="15.02" y="29" dominant-baseline="ideographic">Storage</tspan></text></g></g></g><g id="g-root-tx_corelogi_13ymkf01qrslj5-fill" data-item-order="0" transform="translate(170, 212)"><g id="tx_corelogi_13ymkf01qrslj5-fill-merged" stroke="none" fill="#43dd93" fill-opacity="1"><g><text style="font: bold 11.7px Roboto, sans-serif; white-space: pre;" font-weight="bold" font-size="11.7px" font-family="Roboto, sans-serif"><tspan x="11.52" y="29" dominant-baseline="ideographic">Core Logic</tspan></text></g></g></g><g id="g-root-tx_fastapir_13ymkf01qrslj4-fill" data-item-order="0" transform="translate(62, 188)"><g id="tx_fastapir_13ymkf01qrslj4-fill-merged" stroke="none" fill="#f4f4f4" fill-opacity="1"><g><text style="font: 10px Roboto, sans-serif; white-space: pre;" font-size="10px" font-family="Roboto, sans-serif"><tspan x="17.63" y="22" dominant-baseline="ideographic">FastAPI routers and input validation</tspan></text></g></g></g><g id="g-root-tx_database_hs5ivw1qrskr2-fill" data-item-order="0" transform="translate(74, 350)"><g id="tx_database_hs5ivw1qrskr2-fill-merged" stroke="none" fill="#f4f4f4" fill-opacity="1"><g><text style="font: 10px Roboto, sans-serif; white-space: pre;" font-size="10px" font-family="Roboto, sans-serif"><tspan x="20.02" y="22" dominant-baseline="ideographic">Databases and caching systems</tspan></text></g></g></g><g id="g-root-tx_apilayer_18eg2jg1qrskqv-fill" data-item-order="0" transform="translate(170, 158)"><g id="tx_apilayer_18eg2jg1qrskqv-fill-merged" stroke="none" fill="#a6da37" fill-opacity="1"><g><text style="font: bold 11.7px Roboto, sans-serif; white-space: pre;" font-weight="bold" font-size="11.7px" font-family="Roboto, sans-serif"><tspan x="17.34" y="29" dominant-baseline="ideographic">API Layer</tspan></text></g></g></g><g id="g-root-tx_infrastr_dcc0rg1qrsljb-fill" data-item-order="0" transform="translate(146, 374)"><g id="tx_infrastr_dcc0rg1qrsljb-fill-merged" stroke="none" fill="#b7b7b7" fill-opacity="1"><g><text style="font: bold 11.7px Roboto, sans-serif; white-space: pre;" font-weight="bold" font-size="11.7px" font-family="Roboto, sans-serif"><tspan x="19.56" y="29" dominant-baseline="ideographic">Infrastructure</tspan></text></g></g></g><g id="g-root-tx_webappli_1cu9knw1qrsjym-fill" data-item-order="0" transform="translate(74, 134)"><g id="tx_webappli_1cu9knw1qrsjym-fill-merged" stroke="none" fill="#f4f4f4" fill-opacity="1"><g><text style="font: 10px Roboto, sans-serif; white-space: pre;" font-size="10px" font-family="Roboto, sans-serif"><tspan x="13.41" y="22" dominant-baseline="ideographic">Web applications and dashboards</tspan></text></g></g></g><g id="g-root-tx_clientla_1cu9knw1qrsjyl-fill" data-item-order="0" transform="translate(158, 104)"><g id="tx_clientla_1cu9knw1qrsjyl-fill-merged" stroke="none" fill="#ffe711" fill-opacity="1"><g><text style="font: bold 11.7px Roboto, sans-serif; white-space: pre;" font-weight="bold" font-size="11.7px" font-family="Roboto, sans-serif"><tspan x="17.47" y="29" dominant-baseline="ideographic">Client Layer</tspan></text></g></g></g><g id="g-root-tx_alembicm_dcc0rg1qrsljc-fill" data-item-order="0" transform="translate(134, 404)"><g id="tx_alembicm_dcc0rg1qrsljc-fill-merged" stroke="none" fill="#f4f4f4" fill-opacity="1"><g><text style="font: 10px Roboto, sans-serif; white-space: pre;" font-size="10px" font-family="Roboto, sans-serif"><tspan x="12.66" y="22" dominant-baseline="ideographic">Admin Configuration</tspan></text></g></g></g><g id="g-root-tx_semantic_v3m1981qrsj62-fill" data-item-order="0" transform="translate(74, 242)"><g id="tx_semantic_v3m1981qrsj62-fill-merged" stroke="none" fill="#f4f4f4" fill-opacity="1"><g><text style="font: 10px Roboto, sans-serif; white-space: pre;" font-size="10px" font-family="Roboto, sans-serif"><tspan x="20" y="22" dominant-baseline="ideographic">Semantic layer and query engine</tspan></text></g></g></g><g id="g-root-tf_4mcws1qrmxa9-stroke" data-item-order="-544320"></g><g id="g-root-cp_6_g-6_9595uk1qrr4so-stroke" data-item-order="-274166" transform="translate(318.71099853515625, 377)"><g id="cp_6_g-6_9595uk1qrr4so-stroke" fill="none" stroke-linecap="round" stroke-linejoin="round" stroke-miterlimit="4" stroke="#2c2c2c" stroke-width="2" stroke-opacity="1"><g><path d="M 348.6355 10L 33.9439 10L 10 52L 372.5795 52L 348.6355 10Z"></path></g></g></g><g id="g-root-cp_5_g-5_9595uk1qrr4sp-stroke" data-item-order="-274162" transform="translate(349.4959716796875, 323)"><g id="cp_5_g-5_9595uk1qrr4sp-stroke" fill="none" stroke-linecap="round" stroke-linejoin="round" stroke-miterlimit="4" stroke="#2c2c2c" stroke-width="2" stroke-opacity="1"><g><path d="M 287.0654 10L 33.9439 10L 10 52L 311.0094 52L 287.0654 10Z"></path></g></g></g><g id="g-root-cp_4_g-4_9595uk1qrr4sq-stroke" data-item-order="-274158" transform="translate(380.281005859375, 269)"><g id="cp_4_g-4_9595uk1qrr4sq-stroke" fill="none" stroke-linecap="round" stroke-linejoin="round" stroke-miterlimit="4" stroke="#2c2c2c" stroke-width="2" stroke-opacity="1"><g><path d="M 225.4953 10L 33.9439 10L 10 52L 249.4393 52L 225.4953 10Z"></path></g></g></g><g id="g-root-cp_3_g-3_4pfnq41qrr5kz-stroke" data-item-order="-274154" transform="translate(411.0660400390625, 215)"><g id="cp_3_g-3_4pfnq41qrr5kz-stroke" fill="none" stroke-linecap="round" stroke-linejoin="round" stroke-miterlimit="4" stroke="#2c2c2c" stroke-width="2" stroke-opacity="1"><g><path d="M 163.9252 10L 33.9439 10L 10 52L 187.8691 52L 163.9252 10Z"></path></g></g></g><g id="g-root-cp_2_g-2_4pfnq41qrr5l0-stroke" data-item-order="-274150" transform="translate(441.85003662109375, 161)"><g id="cp_2_g-2_4pfnq41qrr5l0-stroke" fill="none" stroke-linecap="round" stroke-linejoin="round" stroke-miterlimit="4" stroke="#2c2c2c" stroke-width="2" stroke-opacity="1"><g><path d="M 102.3551 10L 33.9439 10L 10 52L 126.2991 52L 102.3551 10Z"></path></g></g></g><g id="g-root-cp_1_g-1_4pfnq41qrr5l1-stroke" data-item-order="-274146" transform="translate(472.636962890625, 101)"><g id="cp_1_g-1_4pfnq41qrr5l1-stroke" fill="none" stroke-linecap="round" stroke-linejoin="round" stroke-miterlimit="4" stroke="#2c2c2c" stroke-width="2" stroke-opacity="1"><g><path d="M 64.7289 58L 37.3645 10L 10 58L 64.7289 58Z"></path></g></g></g><g id="g-root-sy_-1_Line_1uuwpgc1qrr66m-stroke" data-item-order="-274065" transform="translate(284, 395)"><g id="sy_-1_Line_1uuwpgc1qrr66m-stroke" fill="none" stroke-linecap="round" stroke-linejoin="round" stroke-miterlimit="4" stroke="#f4f4f4" stroke-width="2" stroke-opacity="1"><g><path d="M 10 10L 43 10"></path><path d="M 37 16.5L 43.5 10L 37 3.5" stroke-dasharray="none"></path></g></g></g><g id="g-root-sy_-1_Line_1_1uuwpgc1qrr66n-stroke" data-item-order="-274061" transform="translate(284, 341)"><g id="sy_-1_Line_1_1uuwpgc1qrr66n-stroke" fill="none" stroke-linecap="round" stroke-linejoin="round" stroke-miterlimit="4" stroke="#f4f4f4" stroke-width="2" stroke-opacity="1"><g><path d="M 10 10L 74 10"></path><path d="M 68 16.5L 74.5 10L 68 3.5" stroke-dasharray="none"></path></g></g></g><g id="g-root-sy_-1_Line_2_1qf37bw1qrr6yw-stroke" data-item-order="-274057" transform="translate(284, 287)"><g id="sy_-1_Line_2_1qf37bw1qrr6yw-stroke" fill="none" stroke-linecap="round" stroke-linejoin="round" stroke-miterlimit="4" stroke="#f4f4f4" stroke-width="2" stroke-opacity="1"><g><path d="M 10 10L 105 10"></path><path d="M 99 16.5L 105.5 10L 99 3.5" stroke-dasharray="none"></path></g></g></g><g id="g-root-sy_-1_Line_3_1qf37bw1qrr6yx-stroke" data-item-order="-274053" transform="translate(284, 233)"><g id="sy_-1_Line_3_1qf37bw1qrr6yx-stroke" fill="none" stroke-linecap="round" stroke-linejoin="round" stroke-miterlimit="4" stroke="#f4f4f4" stroke-width="2" stroke-opacity="1"><g><path d="M 10 10L 136 10"></path><path d="M 130 16.5L 136.5 10L 130 3.5" stroke-dasharray="none"></path></g></g></g><g id="g-root-sy_-1_Line_4_1qf37bw1qrr6yy-stroke" data-item-order="-274049" transform="translate(284, 179)"><g id="sy_-1_Line_4_1qf37bw1qrr6yy-stroke" fill="none" stroke-linecap="round" stroke-linejoin="round" stroke-miterlimit="4" stroke="#f4f4f4" stroke-width="2" stroke-opacity="1"><g><path d="M 10 10L 167 10"></path><path d="M 161 16.5L 167.5 10L 161 3.5" stroke-dasharray="none"></path></g></g></g><g id="g-root-sy_-1_Line_5_1qf37bw1qrr6yz-stroke" data-item-order="-274045" transform="translate(284, 125)"><g id="sy_-1_Line_5_1qf37bw1qrr6yz-stroke" fill="none" stroke-linecap="round" stroke-linejoin="round" stroke-miterlimit="4" stroke="#f4f4f4" stroke-width="2" stroke-opacity="1"><g><path d="M 10 10L 197 10"></path><path d="M 191 16.5L 197.5 10L 191 3.5" stroke-dasharray="none"></path></g></g></g><g id="g-root-ic_2_qnsj4s1qrvdvo-stroke" data-item-order="-900" transform="translate(242, 380)"></g><g id="g-root-ic_mesh_8x4zq41qrsj5t-stroke" data-item-order="-900" transform="translate(242, 110)"></g><g id="g-root-ic_clou_8d7fg1qrsj67-stroke" data-item-order="-900" transform="translate(242, 164)"></g><g id="g-root-ic_down_qunr301qrty4l-stroke" data-item-order="-900" transform="translate(242, 326)"></g><g id="g-root-ic_chai_hvwdek1qrtxqg-stroke" data-item-order="-900" transform="translate(242, 218)"></g><g id="g-root-ic_serv_dhyajg1qrtxj9-stroke" data-item-order="-900" transform="translate(242, 272)"></g><g id="g-root-tx_database_qnsj4s1qrsjyc-stroke" data-item-order="0" transform="translate(62, 290)"></g><g id="g-root-tx_dataacce_v3m1981qrsj63-stroke" data-item-order="0" transform="translate(158, 260)"></g><g id="g-root-tx_storage_qnsj4s1qrsjyd-stroke" data-item-order="0" transform="translate(182, 320)"></g><g id="g-root-tx_corelogi_13ymkf01qrslj5-stroke" data-item-order="0" transform="translate(170, 212)"></g><g id="g-root-tx_fastapir_13ymkf01qrslj4-stroke" data-item-order="0" transform="translate(62, 188)"></g><g id="g-root-tx_database_hs5ivw1qrskr2-stroke" data-item-order="0" transform="translate(74, 350)"></g><g id="g-root-tx_apilayer_18eg2jg1qrskqv-stroke" data-item-order="0" transform="translate(170, 158)"></g><g id="g-root-tx_infrastr_dcc0rg1qrsljb-stroke" data-item-order="0" transform="translate(146, 374)"></g><g id="g-root-tx_webappli_1cu9knw1qrsjym-stroke" data-item-order="0" transform="translate(74, 134)"></g><g id="g-root-tx_clientla_1cu9knw1qrsjyl-stroke" data-item-order="0" transform="translate(158, 104)"></g><g id="g-root-tx_alembicm_dcc0rg1qrsljc-stroke" data-item-order="0" transform="translate(134, 404)"></g><g id="g-root-tx_semantic_v3m1981qrsj62-stroke" data-item-order="0" transform="translate(74, 242)"></g></g></g><path id="wqqacbw1tjd8n9" d="M65.283 12.757a.35.35 0 0 0 .584.157l5.203-5.141-6.183 3.523.396 1.461zm-2.216-11.7a.35.35 0 0 0-.522.305v3.111l3.276-1.868-2.754-1.548zm3.728 2.105l-4.25 2.421v2.445l6.391-3.644-2.141-1.222zm4.708 3.303a.35.35 0 0 0 0-.609l-1.592-.9-7.365 4.199v1.782a.35.35 0 0 0 .523.305l8.435-4.777z M44.542 2.513c0-.433.355-.783.792-.783s.792.35.792.783-.355.783-.792.783-.792-.35-.792-.783zm59.171 0c0-.433.355-.783.792-.783s.792.35.792.783-.355.783-.792.783-.792-.35-.792-.783zm-85.951 7.636h-1.27v-.487c-.276.201-.864.609-1.881.609-1.202 0-2.274-.794-2.137-2.078.118-1.106 1.153-1.584 1.848-1.727l2.17-.345c0-.539-.29-.956-1.064-1.006s-1.21.305-1.571 1.017l-1.124-.605c1.218-2.631 5.029-1.764 5.029.414v4.207zm-1.27-2.86c.006.396-.062 1.112-.819 1.59-.587.37-1.841.299-1.903-.395-.049-.555.461-.791.906-.898l1.816-.297zm72.662 2.86h-1.27v-.487c-.276.201-.864.609-1.881.609-1.202 0-2.274-.794-2.137-2.078.118-1.106 1.153-1.584 1.848-1.727l2.17-.345c0-.539-.29-.956-1.064-1.006s-1.21.305-1.571 1.017l-1.124-.605c1.218-2.631 5.029-1.764 5.029.414v4.207zm-1.27-2.86c.006.396-.062 1.112-.82 1.59-.587.37-1.841.299-1.903-.395-.049-.555.461-.791.906-.898l1.816-.297zM99.096 10.149H97.85v-8.45h1.246v4.895l2.68-2.559h1.738l-2.633 2.535 2.715 3.578h-1.556l-2.077-2.707-.867.844v1.863zm6.053-6.114h-1.255v6.113h1.255V4.035zm-59.2 0h-1.255v6.113h1.255V4.035zm5.584 6.113V1.697h1.255v2.695c.361-.346 1-.485 1.47-.485 1.452 0 2.477 1.082 2.457 2.448v3.792h-1.27v-3.68c0-.408-.214-1.339-1.315-1.339-.968 0-1.342.756-1.342 1.339v3.681h-1.255zm-4.76-4.894V4.039h.621a.45.45 0 0 0 .45-.45v-.855h1.251v1.305h1.309v1.215h-1.309v3.109c0 .293.105.664.648.664.365 0 .531-.035.736-.07v1.137s-.361.113-.857.113c-1.398 0-1.777-1.051-1.777-1.788V5.254h-1.071zM36.528 4.039h-1.394l2.191 6.106h1.125l1.234-3.918 1.238 3.918h1.129l2.188-6.106h-1.383l-1.359 3.93-1.256-3.93h-1.124l-1.242 3.957-1.348-3.957zM26.212 7.141c-.02 1.566 1.187 3.129 3.223 3.129 1.566 0 2.383-.918 2.734-1.719L31.172 8c-.315.399-.801 1.094-1.738 1.094-1.145 0-1.825-.781-1.891-1.52h4.625c.074-.284.148-.995-.03-1.559-.336-1.064-1.221-2.102-2.839-2.102s-3.088 1.152-3.088 3.227zm1.363-.75h3.348c-.055-.43-.566-1.301-1.623-1.301a1.79 1.79 0 0 0-1.725 1.301zm-8.758.75c.038 1.758 1.277 3.133 3.145 3.133 1.074 0 1.723-.477 1.961-.672v.547h1.242V1.703h-1.258v2.888c-.414-.36-1.062-.68-1.93-.68-1.91 0-3.198 1.473-3.16 3.23zm1.309-.08c0 1.119.723 1.978 1.836 1.978a1.88 1.88 0 0 0 1.94-1.904c0-1.371-1.011-1.99-1.972-1.99s-1.805.798-1.805 1.916zm76.683-.028C96.771 5.275 95.532 3.9 93.664 3.9c-1.074 0-1.723.477-1.961.672v-.547h-1.242v8.22h1.258V9.583c.414.36 1.063.68 1.93.68 1.91 0 3.198-1.473 3.16-3.23zm-1.309.08c0-1.119-.723-1.978-1.836-1.978a1.88 1.88 0 0 0-1.94 1.904c0 1.371 1.011 1.99 1.972 1.99S95.5 8.231 95.5 7.113zM106.441 10.173V4.036h1.254v.382c.361-.346 1-.485 1.47-.485 1.452 0 2.477 1.082 2.457 2.448v3.792h-1.27V6.492c0-.408-.214-1.339-1.315-1.339-.969 0-1.342.756-1.342 1.339v3.681h-1.254zm-30.383-.021V1.824h1.084l4.215 5.777V1.824h1.32v8.328h-1.094l-4.207-5.796v5.796h-1.319zM5.24 10.149H4V2.377h1.014l2.664 3.597 2.654-3.592h1.03v7.766h-1.256V4.762L7.678 8.068 5.24 4.742v5.407z" transform="translate(584, 470)" fill="#acacac88" stroke="none"></path></svg>